<?xml version="1.0" encoding="UTF-8" standalone="no"?>
<!DOCTYPE svg PUBLIC "-//W3C//DTD SVG 1.1//EN"
 "http://www.w3.org/Graphics/SVG/1.1/DTD/svg11.dtd">
<!-- Generated by graphviz version 12.0.0 (0)
 -->
<!-- Pages: 1 -->
<svg width="222pt" height="327pt"
 viewBox="0.00 0.00 222.26 326.55" xmlns="http://www.w3.org/2000/svg" xmlns:xlink="http://www.w3.org/1999/xlink">
<g id="graph0" class="graph" transform="scale(1 1) rotate(0) translate(4 322.55)">
<polygon fill="white" stroke="none" points="-4,4 -4,-322.55 218.26,-322.55 218.26,4 -4,4"/>
<!-- 2317744183936 -->
<g id="node1" class="node">
<title>2317744183936</title>
<ellipse fill="none" stroke="black" cx="106.13" cy="-298.42" rx="20.13" ry="20.13"/>
<text text-anchor="middle" x="106.13" y="-293.37" font-family="Times New Roman,serif" font-size="14.00">21</text>
</g>
<!-- 2317744181568 -->
<g id="node2" class="node">
<title>2317744181568</title>
<ellipse fill="none" stroke="black" cx="78.13" cy="-205.66" rx="20.13" ry="20.13"/>
<text text-anchor="middle" x="78.13" y="-200.61" font-family="Times New Roman,serif" font-size="14.00">14</text>
</g>
<!-- 2317744183936&#45;&gt;2317744181568 -->
<g id="edge1" class="edge">
<title>2317744183936&#45;&gt;2317744181568</title>
<path fill="none" stroke="black" d="M100.46,-279.05C96.66,-266.71 91.56,-250.17 87.19,-236.02"/>
<polygon fill="black" stroke="black" points="90.62,-235.28 84.33,-226.75 83.93,-237.34 90.62,-235.28"/>
<text text-anchor="middle" x="99.01" y="-246.99" font-family="Times New Roman,serif" font-size="14.00">G</text>
</g>
<!-- 2317744183744 -->
<g id="node8" class="node">
<title>2317744183744</title>
<ellipse fill="none" stroke="black" cx="136.13" cy="-205.66" rx="20.13" ry="20.13"/>
<text text-anchor="middle" x="136.13" y="-200.61" font-family="Times New Roman,serif" font-size="14.00">28</text>
</g>
<!-- 2317744183936&#45;&gt;2317744183744 -->
<g id="edge7" class="edge">
<title>2317744183936&#45;&gt;2317744183744</title>
<path fill="none" stroke="black" d="M112.2,-279.05C116.28,-266.71 121.75,-250.17 126.43,-236.02"/>
<polygon fill="black" stroke="black" points="129.68,-237.34 129.49,-226.74 123.03,-235.14 129.68,-237.34"/>
<text text-anchor="middle" x="128.01" y="-246.99" font-family="Times New Roman,serif" font-size="14.00">D</text>
</g>
<!-- 2317744177280 -->
<g id="node3" class="node">
<title>2317744177280</title>
<ellipse fill="none" stroke="black" cx="20.13" cy="-112.89" rx="20.13" ry="20.13"/>
<text text-anchor="middle" x="20.13" y="-107.84" font-family="Times New Roman,serif" font-size="14.00">11</text>
</g>
<!-- 2317744181568&#45;&gt;2317744177280 -->
<g id="edge2" class="edge">
<title>2317744181568&#45;&gt;2317744177280</title>
<path fill="none" stroke="black" d="M67.49,-188.01C58.91,-174.57 46.68,-155.43 36.79,-139.97"/>
<polygon fill="black" stroke="black" points="39.85,-138.25 31.52,-131.71 33.95,-142.02 39.85,-138.25"/>
<text text-anchor="middle" x="60.01" y="-154.22" font-family="Times New Roman,serif" font-size="14.00">G</text>
</g>
<!-- 2317738157440 -->
<g id="node5" class="node">
<title>2317738157440</title>
<ellipse fill="none" stroke="black" cx="78.13" cy="-112.89" rx="20.13" ry="20.13"/>
<text text-anchor="middle" x="78.13" y="-107.84" font-family="Times New Roman,serif" font-size="14.00">18</text>
</g>
<!-- 2317744181568&#45;&gt;2317738157440 -->
<g id="edge4" class="edge">
<title>2317744181568&#45;&gt;2317738157440</title>
<path fill="none" stroke="black" d="M78.13,-185.41C78.13,-173.57 78.13,-158.15 78.13,-144.65"/>
<polygon fill="black" stroke="black" points="81.63,-144.94 78.13,-134.94 74.63,-144.94 81.63,-144.94"/>
<text text-anchor="middle" x="83.01" y="-154.22" font-family="Times New Roman,serif" font-size="14.00">D</text>
</g>
<!-- 2317744178432 -->
<g id="node4" class="node">
<title>2317744178432</title>
<ellipse fill="none" stroke="black" cx="20.13" cy="-20.13" rx="18" ry="18"/>
<text text-anchor="middle" x="20.13" y="-15.08" font-family="Times New Roman,serif" font-size="14.00">9</text>
</g>
<!-- 2317744177280&#45;&gt;2317744178432 -->
<g id="edge3" class="edge">
<title>2317744177280&#45;&gt;2317744178432</title>
<path fill="none" stroke="black" d="M20.13,-92.65C20.13,-80.25 20.13,-63.91 20.13,-49.97"/>
<polygon fill="black" stroke="black" points="23.63,-50.02 20.13,-40.02 16.63,-50.02 23.63,-50.02"/>
<text text-anchor="middle" x="25.01" y="-61.46" font-family="Times New Roman,serif" font-size="14.00">G</text>
</g>
<!-- 2317744181504 -->
<g id="node6" class="node">
<title>2317744181504</title>
<ellipse fill="none" stroke="black" cx="77.13" cy="-20.13" rx="20.13" ry="20.13"/>
<text text-anchor="middle" x="77.13" y="-15.08" font-family="Times New Roman,serif" font-size="14.00">15</text>
</g>
<!-- 2317738157440&#45;&gt;2317744181504 -->
<g id="edge5" class="edge">
<title>2317738157440&#45;&gt;2317744181504</title>
<path fill="none" stroke="black" d="M77.92,-92.65C77.79,-80.81 77.62,-65.38 77.47,-51.89"/>
<polygon fill="black" stroke="black" points="80.97,-52.14 77.36,-42.18 73.97,-52.22 80.97,-52.14"/>
<text text-anchor="middle" x="83.01" y="-61.46" font-family="Times New Roman,serif" font-size="14.00">G</text>
</g>
<!-- 2317744181440 -->
<g id="node7" class="node">
<title>2317744181440</title>
<ellipse fill="none" stroke="black" cx="135.13" cy="-20.13" rx="20.13" ry="20.13"/>
<text text-anchor="middle" x="135.13" y="-15.08" font-family="Times New Roman,serif" font-size="14.00">19</text>
</g>
<!-- 2317738157440&#45;&gt;2317744181440 -->
<g id="edge6" class="edge">
<title>2317738157440&#45;&gt;2317744181440</title>
<path fill="none" stroke="black" d="M88.59,-95.25C97.02,-81.81 109.04,-62.67 118.75,-47.21"/>
<polygon fill="black" stroke="black" points="121.58,-49.28 123.94,-38.95 115.66,-45.56 121.58,-49.28"/>
<text text-anchor="middle" x="116.01" y="-61.46" font-family="Times New Roman,serif" font-size="14.00">D</text>
</g>
<!-- 2317744182912 -->
<g id="node9" class="node">
<title>2317744182912</title>
<ellipse fill="none" stroke="black" cx="136.13" cy="-112.89" rx="20.13" ry="20.13"/>
<text text-anchor="middle" x="136.13" y="-107.84" font-family="Times New Roman,serif" font-size="14.00">25</text>
</g>
<!-- 2317744183744&#45;&gt;2317744182912 -->
<g id="edge8" class="edge">
<title>2317744183744&#45;&gt;2317744182912</title>
<path fill="none" stroke="black" d="M136.13,-185.41C136.13,-173.57 136.13,-158.15 136.13,-144.65"/>
<polygon fill="black" stroke="black" points="139.63,-144.94 136.13,-134.94 132.63,-144.94 139.63,-144.94"/>
<text text-anchor="middle" x="141.01" y="-154.22" font-family="Times New Roman,serif" font-size="14.00">G</text>
</g>
<!-- 2317744183296 -->
<g id="node10" class="node">
<title>2317744183296</title>
<ellipse fill="none" stroke="black" cx="194.13" cy="-112.89" rx="20.13" ry="20.13"/>
<text text-anchor="middle" x="194.13" y="-107.84" font-family="Times New Roman,serif" font-size="14.00">32</text>
</g>
<!-- 2317744183744&#45;&gt;2317744183296 -->
<g id="edge9" class="edge">
<title>2317744183744&#45;&gt;2317744183296</title>
<path fill="none" stroke="black" d="M146.77,-188.01C155.35,-174.57 167.59,-155.43 177.47,-139.97"/>
<polygon fill="black" stroke="black" points="180.31,-142.02 182.75,-131.71 174.41,-138.25 180.31,-142.02"/>
<text text-anchor="middle" x="175.01" y="-154.22" font-family="Times New Roman,serif" font-size="14.00">D</text>
</g>
</g>
</svg>
